<svg xmlns="http://www.w3.org/2000/svg" viewBox="0 0 3730.000000 1890.000000" role="img" aria-label="Jazeel Restaurant &amp; Cafe">
<g transform="translate(0.000000,1890.000000) scale(0.100000,-0.100000)" fill="#1d4a4e" fill-rule="evenodd">
<path d="M2215 17699 c-4 -12 -29 -45 -56 -75 -34 -38 -53 -70 -65 -110 -9
-32 -31 -78 -49 -103 -18 -25 -40 -69 -49 -97 -9 -28 -30 -69 -46 -90 -16 -22
-39 -67 -50 -101 -12 -34 -34 -78 -50 -98 -16 -20 -36 -57 -45 -83 -10 -26
-35 -91 -56 -145 -29 -73 -46 -137 -64 -252 -29 -176 -31 -257 -11 -347 8 -35
19 -106 25 -158 8 -77 17 -108 45 -163 20 -37 44 -103 55 -147 12 -47 33 -99
50 -124 17 -24 39 -67 50 -95 11 -29 32 -69 48 -89 27 -35 61 -96 137 -249 20
-39 47 -85 61 -101 14 -17 36 -54 49 -84 13 -29 38 -71 56 -93 18 -22 41 -58
52 -80 12 -22 31 -54 44 -71 13 -16 35 -57 50 -90 14 -32 34 -68 44 -79 11
-11 36 -50 57 -86 21 -37 51 -84 66 -105 42 -58 93 -142 123 -204 15 -30 44
-75 65 -100 20 -25 42 -62 48 -82 7 -20 26 -54 43 -75 16 -21 41 -59 53 -84
13 -25 35 -59 49 -76 13 -16 36 -55 50 -87 14 -32 40 -74 57 -94 17 -19 40
-55 50 -80 11 -25 35 -66 53 -91 19 -25 41 -63 50 -84 9 -22 28 -53 42 -70 15
-18 35 -52 46 -76 10 -24 36 -63 58 -88 21 -25 44 -61 51 -81 11 -36 35 -77
122 -211 23 -35 56 -89 72 -120 17 -31 47 -77 67 -103 20 -26 40 -58 44 -70 3
-13 22 -44 40 -69 18 -25 42 -67 54 -93 11 -26 32 -63 47 -83 16 -20 42 -60
58 -89 32 -57 70 -117 123 -192 18 -26 46 -76 62 -111 17 -35 44 -79 60 -97
16 -18 37 -53 48 -76 10 -24 39 -73 63 -110 81 -122 117 -183 136 -229 11 -25
34 -61 51 -80 17 -20 40 -57 52 -83 11 -26 32 -63 47 -83 38 -49 105 -156 144
-228 17 -33 47 -78 65 -101 19 -23 39 -56 45 -75 7 -19 29 -56 49 -84 21 -27
45 -64 53 -81 9 -17 31 -49 51 -72 19 -23 40 -59 47 -80 6 -20 26 -55 44 -77
18 -22 42 -59 53 -81 12 -23 32 -55 46 -71 14 -16 35 -54 46 -84 12 -30 36
-72 54 -94 18 -22 41 -56 51 -75 18 -37 60 -105 134 -218 24 -37 52 -86 62
-110 10 -24 37 -64 59 -90 21 -26 46 -67 55 -91 8 -24 28 -59 45 -77 16 -19
37 -49 46 -67 9 -17 33 -51 54 -74 20 -23 42 -59 48 -80 6 -21 34 -69 61 -108
27 -38 67 -95 89 -125 21 -30 44 -70 51 -89 6 -19 29 -57 50 -85 21 -28 46
-67 56 -86 10 -19 26 -44 36 -56 10 -11 33 -49 50 -84 17 -36 44 -80 60 -98
16 -18 41 -56 55 -85 15 -29 37 -65 50 -82 12 -16 34 -56 48 -87 13 -32 36
-72 50 -90 13 -18 36 -59 50 -90 13 -32 36 -72 49 -90 13 -18 33 -57 45 -85
11 -29 34 -70 51 -90 17 -21 37 -58 46 -83 9 -25 33 -74 55 -110 21 -36 43
-84 49 -107 6 -22 27 -64 47 -93 20 -29 42 -75 50 -103 9 -29 31 -76 51 -104
29 -44 38 -69 50 -150 8 -54 24 -125 35 -158 31 -94 33 -130 10 -162 -11 -16
-32 -55 -46 -87 -16 -35 -56 -91 -104 -144 -43 -48 -90 -103 -104 -122 -14
-19 -104 -114 -199 -210 -95 -96 -185 -193 -201 -214 -15 -22 -102 -115 -193
-207 -90 -92 -176 -187 -191 -211 -15 -24 -59 -77 -98 -119 -39 -42 -125 -136
-191 -209 -66 -73 -160 -174 -210 -224 -49 -51 -108 -114 -130 -141 -22 -28
-88 -99 -146 -160 -59 -60 -115 -124 -125 -141 -29 -47 -229 -272 -444 -499
-26 -27 -55 -63 -66 -80 -10 -16 -32 -48 -49 -70 -18 -22 -40 -54 -51 -71 -25
-42 -111 -150 -151 -190 -17 -17 -39 -47 -48 -65 -10 -19 -32 -54 -50 -79 -18
-25 -36 -56 -40 -69 -4 -13 -24 -42 -45 -65 -40 -44 -63 -84 -74 -128 -3 -14
-17 -40 -31 -56 -14 -17 -41 -63 -60 -104 -20 -40 -46 -88 -60 -106 -36 -49
-50 -130 -48 -272 2 -172 16 -251 58 -332 20 -38 42 -100 50 -139 16 -75 25
-97 61 -144 12 -16 32 -63 43 -104 11 -41 36 -97 56 -125 26 -39 37 -67 44
-119 7 -52 18 -81 45 -120 22 -33 41 -78 51 -122 22 -95 66 -137 112 -107 15
9 75 197 93 287 14 67 23 88 56 127 12 15 32 58 45 95 12 37 37 88 54 113 18
25 35 54 39 66 3 11 26 42 51 67 25 26 51 63 60 82 22 54 101 158 192 254 76
80 119 134 190 236 58 84 459 535 475 535 5 0 24 24 42 53 19 28 80 102 136
162 56 61 126 139 155 175 29 36 76 88 105 115 28 28 66 70 83 95 16 25 91
106 166 181 403 403 641 650 666 690 16 24 99 115 185 202 87 86 170 176 186
200 16 23 68 87 117 142 48 55 110 125 136 155 27 30 71 81 99 112 28 31 59
72 68 90 9 18 31 51 49 73 17 22 41 56 53 75 11 20 33 47 47 60 15 14 38 48
52 75 14 28 37 63 50 79 13 16 33 46 44 68 11 21 35 59 54 83 21 28 38 65 45
99 7 33 27 78 51 114 36 53 41 69 54 168 18 131 19 275 4 444 -12 140 -23 191
-67 300 -17 41 -38 105 -46 143 -9 39 -28 86 -46 112 -17 25 -40 70 -50 100
-10 30 -34 83 -54 117 -19 35 -38 84 -41 111 -4 26 -18 62 -31 80 -52 71 -62
91 -73 146 -8 40 -22 70 -44 97 -18 21 -44 57 -57 79 -13 22 -35 54 -48 70
-14 17 -36 55 -49 85 -14 30 -37 70 -53 90 -15 19 -35 53 -44 74 -9 22 -35 62
-57 90 -46 58 -92 132 -143 227 -19 36 -46 80 -60 96 -14 17 -35 52 -47 79
-11 27 -31 62 -43 79 -13 16 -35 53 -49 81 -14 28 -37 64 -50 80 -14 16 -39
58 -56 94 -17 35 -40 73 -51 85 -11 12 -34 49 -50 84 -17 35 -44 82 -61 104
-59 83 -102 153 -127 207 -14 30 -39 73 -57 95 -18 22 -40 56 -50 75 -10 19
-33 56 -51 81 -19 26 -46 71 -60 100 -14 30 -39 75 -57 101 -18 26 -44 66 -60
90 -15 24 -37 57 -48 73 -34 49 -86 136 -119 200 -18 33 -43 71 -55 85 -13 14
-39 50 -57 81 -44 74 -86 140 -125 197 -18 26 -45 74 -61 107 -16 33 -48 82
-71 108 -22 27 -41 54 -41 62 0 8 -20 43 -45 79 -24 36 -51 81 -59 99 -7 18
-27 49 -43 68 -17 19 -42 57 -56 85 -14 28 -37 64 -50 80 -13 16 -34 48 -45
70 -12 23 -32 55 -46 71 -13 16 -36 56 -51 89 -14 32 -39 73 -55 89 -16 17
-39 55 -53 85 -13 30 -35 69 -49 85 -14 17 -33 46 -43 65 -9 19 -29 50 -44 69
-14 19 -42 62 -61 96 -38 67 -70 120 -137 220 -23 35 -52 83 -64 107 -12 24
-35 58 -51 76 -16 19 -40 59 -54 90 -14 31 -33 66 -43 77 -11 11 -30 43 -44
70 -14 28 -39 68 -56 89 -18 22 -40 59 -51 84 -11 24 -33 60 -49 81 -16 20
-37 55 -47 76 -10 22 -36 66 -56 97 -21 31 -42 68 -47 80 -5 13 -26 46 -46 72
-21 27 -44 65 -52 85 -9 20 -35 62 -59 94 -24 33 -44 65 -44 72 0 8 -16 34
-35 59 -19 25 -48 72 -64 104 -16 33 -41 73 -55 89 -14 17 -35 52 -46 77 -11
26 -38 73 -60 103 -22 31 -40 62 -40 69 0 7 -16 33 -35 58 -19 25 -50 76 -69
114 -19 37 -41 74 -50 81 -8 7 -25 38 -36 68 -11 31 -38 76 -60 100 -21 25
-44 61 -51 81 -7 21 -32 66 -56 102 -23 36 -43 70 -43 77 0 6 -15 31 -33 55
-19 24 -47 66 -62 93 -16 28 -42 66 -59 86 -17 20 -44 58 -59 85 -29 52 -70
113 -135 204 -22 30 -51 78 -65 106 -14 27 -32 56 -40 63 -8 6 -25 37 -38 69
-12 31 -37 77 -55 101 -18 24 -40 64 -49 90 -8 25 -33 68 -54 94 -22 26 -45
64 -52 85 -6 20 -24 55 -40 78 -15 22 -41 68 -57 101 -16 34 -39 75 -52 92
-12 17 -33 59 -46 93 -13 34 -36 80 -50 101 -14 22 -37 69 -50 105 -14 36 -38
84 -54 106 -16 23 -38 66 -49 97 -10 31 -35 80 -54 108 -20 28 -43 76 -51 105
-9 30 -29 83 -45 119 -42 93 -71 254 -71 394 0 43 -3 88 -6 101 -8 29 -50 30
-59 1z M14017 15583 c-11 -11 -8 -58 5 -71 7 -7 27 -12 45 -12 31 0 33 2 33
33 0 18 -5 38 -12 45 -13 13 -60 16 -71 5z M14200 15356 c0 -26 10 -47 38 -80
20 -24 49 -64 64 -88 15 -24 44 -63 63 -88 75 -95 132 -165 173 -214 24 -28
55 -71 68 -96 39 -72 124 -178 301 -375 112 -125 184 -190 237 -217 23 -11 67
-36 98 -55 53 -33 65 -36 175 -44 82 -6 147 -18 214 -38 187 -57 174 -56 1178
-54 885 2 928 3 1022 23 69 14 136 20 227 20 87 0 159 6 223 19 80 16 143 19
421 20 272 1 332 -1 356 -13 36 -19 138 -128 148 -158 3 -13 22 -44 40 -69 19
-26 41 -66 49 -90 9 -24 29 -60 45 -81 16 -20 41 -62 54 -93 14 -31 41 -75 61
-97 39 -46 55 -91 55 -155 0 -34 -5 -46 -24 -59 -68 -44 -210 -57 -756 -73
-435 -13 -483 -16 -548 -39 -47 -17 -74 -19 -230 -14 -150 4 -187 2 -237 -13
-48 -14 -109 -18 -305 -20 -135 -2 -490 -8 -790 -14 -300 -5 -988 -10 -1530
-10 -834 -1 -994 -3 -1045 -16 -33 -8 -106 -14 -163 -15 -63 0 -135 -7 -190
-19 -105 -24 -158 -29 -417 -41 -202 -9 -239 -16 -365 -63 -36 -14 -105 -30
-155 -36 -71 -9 -100 -18 -140 -43 -27 -18 -74 -43 -102 -58 -65 -31 -276
-227 -295 -272 -7 -18 -34 -75 -61 -127 -36 -72 -50 -112 -58 -170 -13 -96
-24 -132 -60 -190 -22 -35 -33 -71 -44 -145 -12 -79 -21 -108 -50 -155 -20
-32 -38 -74 -42 -95 l-6 -37 59 6 c120 12 331 21 381 17 46 -3 53 -1 64 20 18
34 39 46 89 54 25 3 77 19 117 35 119 47 196 57 488 64 206 5 292 11 364 26
69 14 136 19 250 19 104 0 184 6 241 17 77 15 248 16 1730 19 905 2 1947 8
2315 14 633 9 673 11 727 30 32 11 78 20 102 20 25 0 57 5 72 10 31 12 146 26
314 40 85 6 137 16 200 38 103 37 222 62 289 62 46 0 54 4 118 60 98 85 168
174 187 239 9 30 32 85 51 122 25 49 38 92 48 162 12 76 23 110 53 164 34 61
38 78 45 168 7 90 12 109 51 190 l43 90 0 181 0 181 -42 63 c-24 35 -43 72
-43 82 0 31 -29 91 -60 123 -16 17 -37 50 -48 75 -11 25 -36 64 -56 88 -19 24
-44 62 -55 85 -10 23 -32 59 -50 81 -17 21 -31 42 -31 47 0 5 -19 32 -43 61
-24 29 -55 70 -69 91 -34 50 -273 305 -359 382 -139 125 -181 158 -229 175
-26 10 -66 32 -88 50 -33 26 -53 33 -118 41 -110 13 -208 36 -284 67 l-65 27
-705 0 c-651 0 -711 -2 -785 -19 -53 -12 -147 -21 -280 -26 -110 -5 -218 -13
-240 -19 -64 -18 -956 -30 -1395 -19 -243 6 -339 18 -435 56 -28 11 -93 25
-145 31 -78 10 -106 18 -165 51 -38 21 -91 44 -116 50 -32 8 -59 25 -85 51
-29 30 -46 39 -71 39 -31 0 -33 -2 -33 -34z M17129 10807 c-36 -7 -75 -19 -86
-27 -47 -34 -127 -102 -254 -217 -74 -67 -156 -139 -181 -160 -256 -213 -268
-224 -268 -254 0 -37 27 -49 111 -49 73 0 101 -13 209 -95 47 -36 108 -80 135
-99 28 -19 82 -66 120 -106 39 -39 108 -104 154 -143 46 -40 100 -88 120 -107
20 -20 81 -58 136 -85 98 -49 102 -50 190 -50 85 0 93 2 135 31 25 18 62 39
81 47 23 9 115 94 245 224 297 298 314 317 314 357 0 46 -21 61 -132 95 -108
33 -148 51 -169 77 -8 9 -43 36 -79 59 -36 23 -139 114 -230 202 -91 87 -187
174 -213 192 -26 18 -53 42 -60 53 -31 52 -158 77 -278 55z M10078 9514 c-54
-41 -112 -110 -291 -352 -27 -38 -65 -86 -135 -177 -22 -28 -48 -69 -59 -90
-11 -22 -34 -63 -53 -92 -44 -71 -59 -183 -42 -332 10 -89 18 -119 51 -186 22
-44 43 -96 46 -115 8 -40 28 -82 60 -125 12 -16 31 -52 41 -79 9 -27 32 -66
50 -87 18 -22 40 -63 50 -91 9 -29 34 -73 54 -98 20 -25 44 -67 53 -93 9 -26
30 -66 48 -88 17 -22 40 -63 51 -91 11 -29 32 -68 48 -88 16 -20 39 -60 53
-90 13 -30 38 -72 56 -94 43 -54 44 -125 2 -182 -92 -125 -544 -597 -646 -674
-53 -40 -166 -154 -204 -205 -12 -16 -83 -94 -158 -173 -75 -78 -147 -159
-161 -180 -14 -20 -37 -50 -52 -67 -15 -16 -35 -43 -43 -60 -15 -28 -83 -117
-155 -201 -74 -86 -131 -178 -142 -227 -6 -28 -20 -71 -31 -96 -30 -68 -59
-198 -59 -267 0 -35 8 -86 20 -119 11 -32 20 -81 20 -109 0 -28 9 -80 20 -115
12 -38 23 -108 26 -170 3 -58 14 -144 24 -191 10 -47 22 -107 25 -135 12 -92
49 -155 91 -155 30 0 46 32 68 132 12 53 26 88 48 115 16 21 43 63 58 94 16
30 36 61 45 69 9 7 26 32 37 54 12 26 200 223 511 536 578 582 873 893 1065
1124 35 42 67 76 72 76 4 0 25 26 46 58 21 31 76 100 123 153 47 53 113 129
146 169 33 39 74 89 92 109 17 20 43 61 57 91 14 30 39 72 57 92 28 33 32 47
41 130 11 101 3 313 -12 354 -6 14 -23 42 -39 62 -16 20 -37 62 -45 93 -9 30
-32 79 -51 109 -19 30 -44 81 -55 114 -11 34 -35 83 -54 109 -23 32 -38 68
-46 113 -10 52 -21 75 -51 110 -23 27 -41 59 -44 82 -4 20 -9 50 -12 65 -3 16
-25 51 -49 78 -24 27 -44 55 -44 62 0 8 -19 44 -42 83 -23 38 -49 94 -59 124
-9 30 -33 82 -53 115 -20 32 -41 75 -46 94 -5 19 -26 61 -46 94 -22 36 -43 86
-51 126 -9 45 -24 79 -48 110 -20 25 -42 67 -50 95 -9 28 -31 77 -50 108 -27
44 -41 84 -60 179 -14 67 -25 150 -25 185 0 60 -1 64 -22 64 -13 0 -44 -17
-70 -36z M11570 5769 c-54 -16 -91 -19 -225 -17 -128 2 -171 -1 -214 -15 -30
-9 -97 -19 -150 -23 -53 -3 -107 -7 -120 -10 -27 -6 -135 -113 -158 -159 -12
-22 -18 -77 -24 -195 -4 -91 -12 -183 -18 -205 -6 -22 -11 -74 -11 -116 0 -66
-19 -165 -51 -265 -6 -21 -34 -50 -87 -90 l-77 -59 -205 -1 c-113 -1 -287 -6
-387 -11 -158 -7 -184 -11 -203 -28 -36 -32 -112 -154 -121 -193 -4 -20 -11
-176 -15 -347 -7 -358 -16 -424 -69 -501 -45 -65 -48 -123 -9 -159 25 -23 35
-25 120 -25 71 0 106 -5 146 -21 48 -19 69 -20 233 -17 l180 3 78 38 c82 39
177 119 204 170 8 16 18 77 23 136 4 58 15 126 24 150 13 35 16 89 16 280 l0
236 38 75 c49 99 62 105 193 91 55 -6 135 -11 178 -11 42 0 101 -7 130 -16 35
-10 77 -14 120 -11 74 4 280 51 322 73 19 9 46 49 89 131 62 117 62 119 71
228 4 61 8 222 8 358 1 194 4 255 16 283 13 32 38 65 123 164 34 40 42 84 16
94 -30 12 -119 4 -184 -15z M8714 3586 c-3 -8 -4 -27 -2 -43 3 -25 7 -28 38
-28 34 0 35 1 35 40 0 38 -2 40 -33 43 -21 2 -34 -2 -38 -12z M30485 2281
c-51 -24 -139 -125 -169 -193 -13 -29 -38 -66 -55 -82 -40 -38 -39 -65 4 -122
l35 -46 0 -245 0 -245 29 -29 c25 -25 37 -29 81 -29 46 0 56 4 86 34 22 22 34
44 35 63 1 15 2 116 3 223 1 223 1 224 84 270 44 25 52 35 52 59 0 34 -11 44
-65 61 -52 16 -65 27 -65 56 0 26 18 38 74 48 84 16 113 95 57 158 -24 27 -36
32 -87 35 -43 3 -70 -1 -99 -16z M16285 2253 c-143 -4 -162 -12 -191 -79 -17
-41 -19 -793 -1 -831 14 -32 56 -53 107 -53 33 0 48 6 71 29 26 26 29 37 29
89 0 86 15 122 51 122 22 0 35 -9 56 -38 16 -21 54 -68 86 -104 54 -61 66 -68
146 -97 101 -36 134 -38 179 -11 27 17 32 25 32 59 0 37 -4 42 -55 76 -30 20
-64 53 -76 73 -13 20 -42 58 -66 84 -70 77 -55 125 68 209 32 22 63 48 69 59
5 10 10 62 10 115 0 169 -32 209 -215 272 -81 27 -123 31 -300 26z m211 -172
c51 -23 74 -55 74 -102 0 -43 -15 -58 -90 -93 -118 -55 -180 -16 -180 114 0
72 29 100 102 100 30 0 71 -9 94 -19z M26534 2214 c-79 -48 -94 -61 -117 -113
-17 -39 -19 -57 -12 -162 7 -130 5 -138 -52 -203 -50 -55 -66 -100 -67 -186
-3 -188 94 -268 319 -261 159 5 253 5 360 0 68 -3 112 0 138 9 33 12 37 17 37
48 0 30 -5 36 -47 58 -77 39 -89 57 -84 135 9 164 7 208 -13 230 -24 26 -77
28 -99 3 -9 -10 -19 -37 -23 -60 -6 -37 -10 -42 -34 -42 -36 0 -70 38 -70 79
0 22 13 49 43 88 96 126 89 110 85 201 -5 104 -20 124 -119 174 -103 51 -162
52 -245 2z m50 -660 c3 -9 6 -27 6 -40 0 -18 -5 -24 -23 -24 -31 0 -47 18 -47
52 0 24 4 28 29 28 17 0 31 -6 35 -16z M19159 2092 c-14 -9 -49 -37 -77 -62
-65 -57 -70 -95 -19 -148 l32 -33 5 -222 c4 -199 7 -226 25 -257 34 -57 82
-75 207 -75 123 0 156 15 172 77 17 67 -16 122 -81 134 -18 3 -44 15 -58 26
-24 18 -25 25 -25 121 1 146 9 173 69 228 72 65 67 91 -24 137 -22 11 -56 36
-74 56 -30 31 -41 36 -80 36 -27 0 -57 -7 -72 -18z M24903 2089 c-51 -25 -133
-111 -133 -138 0 -11 14 -49 32 -83 32 -63 32 -63 38 -253 5 -168 8 -195 27
-230 41 -77 63 -90 167 -93 67 -3 102 0 129 11 48 21 78 70 75 122 -3 38 -6
42 -58 67 -84 41 -90 53 -90 172 0 128 12 169 61 217 45 44 51 80 17 107 -12
9 -42 35 -67 58 -25 23 -56 46 -68 53 -33 17 -83 13 -130 -10z M17332 2009
c-92 -12 -99 -15 -166 -83 -55 -54 -64 -69 -84 -138 -28 -97 -28 -161 0 -267
20 -78 26 -88 84 -147 77 -78 103 -86 289 -86 212 0 265 21 265 107 0 35 -6
52 -25 70 -29 30 -59 31 -116 5 -66 -29 -111 -26 -154 11 -48 43 -48 75 3 88
20 6 66 11 102 12 36 0 103 4 149 8 107 8 121 23 121 120 0 75 -16 111 -88
205 -52 68 -60 73 -164 91 -91 16 -121 17 -216 4z m174 -173 c40 -40 47 -89
15 -106 -25 -13 -137 -13 -162 0 -33 18 -25 72 16 109 49 42 87 41 131 -3z
M20071 2005 c-60 -17 -97 -41 -135 -86 -48 -57 -27 -139 36 -139 34 0 114 28
129 46 6 8 24 14 40 14 25 0 29 -4 29 -27 -1 -62 -60 -103 -149 -103 l-65 0
-64 -67 c-111 -118 -121 -186 -40 -279 61 -69 82 -73 353 -72 l240 1 27 28 28
27 0 245 0 244 -26 39 c-40 61 -86 105 -124 121 -51 22 -213 27 -279 8z m147
-461 c4 -39 -25 -67 -65 -62 -24 3 -28 8 -31 36 -5 45 13 64 57 60 32 -3 36
-6 39 -34z M22975 2006 c-78 -21 -100 -32 -139 -71 -29 -29 -36 -43 -36 -75 0
-31 5 -43 25 -56 36 -23 132 -16 170 14 15 12 38 22 51 22 21 0 24 -5 24 -33
0 -57 -68 -97 -166 -97 l-56 0 -69 -70 c-38 -39 -72 -82 -75 -96 -11 -43 2
-161 20 -190 35 -52 70 -58 321 -60 127 -1 244 2 261 7 17 5 41 20 53 33 22
23 22 28 19 257 l-3 234 -34 60 c-44 78 -60 95 -96 110 -47 20 -211 27 -270
11z m133 -457 c4 -33 -28 -61 -65 -57 -22 2 -29 9 -31 31 -6 49 3 58 50 55 38
-3 43 -6 46 -29z M28509 2010 c-26 -4 -57 -13 -70 -20 -44 -23 -111 -95 -167
-180 -51 -78 -56 -90 -60 -153 -4 -64 -2 -72 31 -125 19 -31 41 -71 50 -87 20
-40 88 -110 125 -129 52 -27 195 -39 312 -26 149 17 169 31 170 117 0 42 -4
55 -22 67 -31 22 -54 20 -116 -9 -70 -32 -94 -32 -156 6 -82 50 -104 76 -116
136 -15 71 10 193 46 229 45 45 135 21 267 -71 56 -39 107 -4 107 72 0 35 -6
50 -37 84 -76 84 -205 116 -364 89z M29525 2010 c-73 -8 -111 -27 -170 -84
-51 -48 -58 -83 -25 -116 24 -24 78 -26 135 -3 22 8 54 16 70 17 27 1 30 -3
33 -30 4 -40 -29 -68 -107 -90 -98 -27 -111 -35 -166 -106 -72 -92 -77 -120
-33 -200 19 -34 45 -70 59 -80 33 -25 198 -41 271 -27 30 5 91 7 140 3 100 -7
139 3 157 42 7 16 11 109 11 270 0 226 -2 248 -20 285 -49 95 -182 140 -355
119z m125 -459 c0 -37 -47 -74 -87 -69 -22 2 -29 9 -31 31 -5 43 22 67 75 67
41 0 43 -1 43 -29z M31171 2005 c-78 -22 -111 -46 -177 -128 -87 -107 -94
-126 -94 -233 0 -109 5 -125 64 -201 90 -115 98 -123 134 -133 79 -21 209 -29
311 -19 148 14 181 35 181 119 0 30 -6 47 -25 65 -31 31 -53 31 -115 0 -68
-34 -105 -32 -162 10 -76 56 -60 107 27 91 56 -11 240 11 285 34 71 36 75 66
24 186 -30 69 -47 94 -99 142 -69 65 -83 70 -215 77 -59 4 -102 0 -139 -10z
m193 -146 c21 -16 26 -29 26 -63 0 -68 -50 -98 -129 -76 -68 18 -80 82 -26
136 31 31 91 33 129 3z M18265 2000 c-35 -11 -68 -43 -119 -119 -51 -75 -48
-114 13 -187 14 -17 33 -45 42 -61 12 -21 27 -33 50 -38 64 -14 89 -33 89 -67
l0 -31 -51 5 c-29 3 -62 14 -79 27 -50 37 -90 23 -90 -32 0 -35 9 -53 67 -128
26 -35 55 -62 71 -66 15 -5 104 -8 197 -8 195 0 217 6 268 69 72 88 74 116 12
210 -53 82 -62 120 -46 202 15 75 11 84 -61 146 -94 80 -99 82 -222 85 -61 1
-125 -2 -141 -7z m180 -512 c20 -9 25 -18 23 -37 -6 -54 -98 -30 -98 26 0 18
5 23 25 23 13 0 36 -5 50 -12z M20929 1995 c-42 -23 -49 -61 -49 -264 0 -235
18 -363 55 -400 l25 -26 253 -7 c231 -6 256 -5 294 12 23 10 46 27 52 38 15
28 15 503 0 557 -6 21 -26 54 -44 72 -27 27 -41 33 -74 33 -47 0 -86 -17 -116
-50 -18 -20 -20 -40 -25 -222 l-5 -200 -28 -23 c-57 -50 -135 -39 -157 21 -6
14 -10 113 -10 219 0 188 -1 195 -23 221 -29 33 -106 43 -148 19z M22002 1994
c-64 -33 -67 -48 -70 -352 -4 -305 -3 -310 63 -338 47 -19 89 -18 135 6 53 27
60 57 58 225 -2 127 0 144 20 186 25 51 39 59 136 77 32 7 67 19 77 28 23 21
25 74 4 114 -26 51 -63 62 -189 59 -61 -2 -131 0 -156 4 -34 6 -53 3 -78 -9z
M23825 2000 c-27 -10 -51 -38 -65 -75 -7 -19 -11 -122 -11 -293 0 -228 2 -267
16 -289 21 -32 73 -53 130 -53 38 0 52 5 76 29 l29 29 0 199 c0 221 3 233 66
259 57 24 92 18 114 -18 18 -30 20 -51 20 -236 l0 -204 30 -30 c29 -29 34 -30
92 -26 54 4 64 8 91 38 l30 33 -7 196 c-6 162 -12 210 -32 279 -13 45 -28 91
-34 102 -16 30 -67 52 -129 56 -131 8 -398 11 -416 4z"/>
</g>
<g transform="translate(0.000000,1890.000000) scale(0.100000,-0.100000)" fill="#a08d4c" fill-rule="evenodd">
<path d="M11014 15321 c-84 -25 -99 -35 -214 -131 -316 -264 -530 -480 -530
-534 0 -22 4 -26 30 -26 105 0 296 -106 425 -235 39 -38 99 -94 135 -124 36
-30 94 -82 130 -116 130 -124 258 -195 360 -202 78 -6 212 25 280 65 58 33
350 320 391 383 16 26 46 60 65 74 78 59 118 153 80 184 -8 7 -45 17 -83 22
-143 20 -157 29 -450 289 -65 57 -167 152 -228 210 -98 94 -118 109 -183 133
-84 31 -123 33 -208 8z M12085 11625 c-93 -7 -173 -14 -176 -14 -4 -1 -9 -22
-12 -47 -3 -31 -15 -58 -36 -85 -44 -54 -58 -91 -66 -178 -6 -58 -16 -90 -48
-150 -39 -74 -40 -79 -48 -213 -10 -168 -1 -228 46 -312 25 -45 40 -90 51
-152 11 -62 26 -108 54 -158 21 -39 41 -87 45 -106 8 -39 35 -92 65 -130 12
-14 28 -53 36 -85 9 -33 29 -77 45 -98 17 -20 42 -63 55 -94 14 -31 43 -81 65
-111 21 -30 39 -61 39 -68 0 -6 16 -36 36 -65 20 -30 47 -76 61 -104 14 -27
36 -61 49 -75 12 -14 34 -50 48 -82 14 -31 38 -71 54 -90 16 -18 42 -58 57
-88 15 -30 38 -68 50 -85 13 -16 26 -41 30 -54 4 -14 27 -45 50 -70 23 -25 57
-73 74 -106 68 -128 118 -212 154 -258 20 -27 37 -53 37 -58 0 -11 91 -149
145 -221 20 -26 42 -63 51 -83 8 -20 33 -59 55 -88 50 -64 100 -144 135 -217
14 -30 41 -74 60 -97 19 -23 43 -62 54 -88 11 -25 31 -60 44 -78 13 -18 36
-57 51 -87 15 -30 39 -69 52 -87 14 -18 37 -65 52 -106 16 -41 40 -90 54 -109
15 -19 34 -54 42 -79 9 -24 31 -69 50 -100 19 -31 39 -76 44 -100 13 -55 14
-154 2 -196 -10 -34 -138 -199 -281 -362 -47 -54 -118 -135 -158 -182 -123
-141 -356 -390 -564 -604 -109 -111 -198 -208 -198 -215 0 -11 -36 -51 -260
-290 -44 -47 -91 -100 -104 -118 -13 -18 -58 -68 -99 -111 -42 -44 -104 -112
-139 -152 -34 -41 -112 -126 -173 -190 -273 -288 -637 -717 -833 -982 -106
-143 -249 -363 -278 -427 -9 -19 -31 -55 -49 -80 -46 -63 -143 -273 -160 -345
-30 -125 -13 -307 40 -425 19 -41 43 -111 55 -155 12 -44 36 -107 54 -140 18
-33 43 -89 55 -125 13 -36 36 -88 52 -115 15 -28 35 -79 44 -115 16 -60 65
-183 118 -290 23 -47 55 -63 82 -40 18 15 84 170 107 255 11 38 32 93 48 120
16 28 37 74 48 103 11 29 40 83 65 120 124 189 185 274 244 342 35 41 83 100
106 130 22 30 74 95 114 143 40 48 73 92 73 97 0 5 30 42 68 82 37 40 81 91
97 113 16 22 63 76 105 121 123 132 219 241 268 305 24 33 58 70 74 82 17 12
48 44 70 72 45 57 267 299 438 479 64 66 149 159 190 206 41 47 163 175 272
285 108 110 214 223 235 251 21 28 58 69 83 90 25 22 108 104 184 184 185 194
180 190 225 190 35 0 49 -10 154 -107 63 -60 139 -136 169 -169 89 -103 134
-158 154 -189 10 -16 52 -72 94 -124 41 -52 86 -108 99 -125 14 -17 41 -49 60
-72 61 -70 132 -162 170 -222 21 -31 66 -93 102 -137 36 -44 76 -96 89 -115
51 -73 266 -304 344 -369 117 -98 133 -107 237 -141 140 -46 209 -49 315 -15
134 44 258 144 397 322 31 39 61 75 67 78 6 4 33 52 60 108 27 56 72 138 100
182 63 98 110 190 151 292 17 43 48 108 70 144 35 58 104 247 139 379 6 25 28
72 49 105 46 76 57 103 76 192 18 91 66 193 114 242 29 31 46 40 86 45 52 7
300 8 696 4 l236 -3 48 -30 c56 -35 80 -76 96 -161 6 -32 26 -98 44 -145 18
-47 42 -132 54 -189 12 -57 34 -144 50 -195 17 -50 37 -134 46 -186 10 -56 30
-125 50 -170 19 -41 39 -100 46 -130 24 -123 38 -177 59 -233 20 -52 27 -60
68 -78 44 -20 53 -20 236 -8 236 14 236 15 236 108 0 47 -8 88 -26 137 -54
146 -116 365 -135 480 -12 72 -34 156 -56 210 -38 97 -102 332 -133 486 -37
186 -60 277 -89 360 -36 102 -113 389 -140 521 -11 53 -36 136 -55 185 -18 48
-42 126 -51 173 -9 47 -30 126 -46 175 -15 50 -39 146 -53 215 -13 69 -38 161
-55 205 -17 44 -44 139 -60 211 -36 161 -67 240 -104 268 -27 20 -41 21 -247
21 l-219 0 -30 -29 c-36 -35 -65 -107 -92 -229 -11 -48 -33 -113 -49 -145 -18
-33 -36 -91 -44 -139 -13 -73 -71 -294 -112 -428 -9 -27 -27 -71 -40 -97 -40
-79 -103 -266 -129 -383 -17 -77 -38 -136 -69 -195 -24 -47 -51 -107 -59 -135
-8 -27 -26 -79 -40 -115 -13 -36 -34 -105 -46 -154 -12 -49 -37 -119 -56 -155
-18 -36 -39 -86 -45 -111 -7 -25 -27 -90 -45 -145 -18 -55 -41 -130 -50 -167
-9 -36 -32 -90 -50 -119 -46 -71 -109 -217 -143 -331 -19 -63 -41 -113 -66
-146 -44 -61 -86 -151 -116 -252 -30 -98 -53 -143 -101 -195 -22 -24 -63 -88
-93 -144 -53 -102 -111 -176 -221 -283 -73 -70 -105 -83 -215 -83 -83 0 -87 1
-163 45 -121 69 -157 100 -204 170 -23 36 -61 88 -83 115 -22 28 -71 105 -109
173 -38 67 -81 136 -94 152 -32 38 -123 187 -143 235 -8 20 -38 72 -67 115
-29 43 -74 116 -102 161 -27 44 -68 104 -90 133 -22 28 -57 77 -79 109 -52 77
-299 347 -389 425 -94 82 -107 98 -107 136 1 51 34 110 126 222 47 59 102 134
121 168 19 33 43 70 53 81 27 30 114 186 156 278 80 179 84 193 100 329 25
216 4 445 -57 597 -16 40 -38 113 -49 161 -10 48 -33 115 -50 149 -17 34 -46
103 -64 154 -19 52 -45 116 -59 143 -13 27 -30 67 -37 89 -7 22 -25 60 -40 85
-15 25 -37 75 -50 112 -12 37 -32 84 -46 104 -14 19 -38 62 -54 93 -16 32 -41
72 -55 89 -15 18 -40 60 -56 93 -17 34 -41 76 -54 93 -13 17 -33 53 -45 80
-11 27 -34 64 -50 83 -17 18 -40 53 -51 76 -12 23 -34 58 -49 77 -14 19 -37
60 -49 91 -12 31 -34 67 -48 80 -14 13 -39 51 -55 84 -17 33 -38 69 -49 80
-10 11 -30 47 -45 80 -15 33 -39 76 -54 95 -15 19 -37 57 -48 83 -12 27 -34
63 -48 80 -15 18 -38 57 -51 87 -14 30 -38 69 -54 87 -16 19 -40 55 -53 81
-14 26 -36 62 -50 81 -14 19 -32 55 -41 81 -9 26 -31 65 -49 86 -18 21 -43 59
-56 84 -12 24 -35 60 -51 80 -15 19 -40 61 -54 94 -14 32 -36 72 -49 90 -13
17 -32 51 -43 77 -11 25 -34 61 -51 80 -17 20 -40 56 -51 81 -10 25 -34 65
-53 90 -19 24 -40 60 -48 79 -7 19 -26 52 -41 75 -16 23 -40 67 -54 100 -14
32 -36 72 -49 88 -13 17 -37 58 -54 92 -17 34 -42 74 -55 90 -13 16 -32 54
-41 85 -9 34 -32 76 -55 103 -21 26 -43 64 -49 85 -7 20 -30 61 -52 91 -36 48
-60 103 -60 138 0 7 -13 12 -32 12 -18 0 -49 2 -68 4 -19 2 -111 -2 -205 -9z
m5889 -4477 c8 -13 25 -77 39 -143 75 -349 98 -446 125 -510 17 -38 42 -129
56 -202 14 -72 35 -154 45 -182 11 -27 27 -94 36 -147 9 -54 27 -125 41 -158
46 -109 77 -214 70 -241 -13 -53 -31 -56 -353 -66 -164 -5 -361 -6 -438 -3
-135 7 -140 8 -167 35 -16 15 -28 34 -28 43 0 66 92 362 140 451 29 54 45 104
69 215 40 185 58 248 120 413 34 90 56 167 66 233 18 125 49 215 85 254 34 37
73 40 94 8z M30906 7583 l-28 -18 1 -1756 c0 -1142 4 -1781 11 -1828 19 -133
20 -133 234 -143 200 -8 399 -45 554 -102 53 -19 132 -42 175 -51 74 -16 77
-17 77 -45 0 -21 -11 -38 -48 -68 -58 -49 -114 -66 -283 -86 -69 -8 -170 -24
-225 -35 -175 -36 -465 -51 -749 -41 -267 10 -341 18 -457 50 -40 11 -132 29
-205 40 -72 10 -155 29 -185 40 -29 11 -111 37 -183 56 -71 20 -147 45 -168
56 -21 10 -81 30 -135 44 -100 26 -124 40 -148 85 -13 26 -15 26 -151 32 -93
4 -159 12 -203 25 -36 11 -96 29 -135 41 -38 11 -139 27 -224 36 -149 15 -364
55 -399 74 -49 26 -65 58 -73 148 -13 130 -12 1627 0 1690 13 65 34 107 63
127 34 24 927 24 1008 0 98 -28 117 -29 130 -4 8 15 10 44 5 84 -9 84 -14 91
-61 80 -22 -5 -276 -9 -566 -9 l-528 0 -27 28 -28 27 -5 453 c-5 471 1 681 23
726 6 14 27 34 46 43 32 16 86 17 695 13 738 -5 721 -3 852 -75 111 -62 158
-50 169 41 8 59 -17 106 -70 133 -39 21 -53 21 -1020 25 -1181 6 -1159 6
-1193 -8 -59 -25 -55 102 -56 -1858 -1 -1794 -1 -1801 19 -1814 14 -9 91 -15
245 -21 261 -9 394 -29 538 -81 53 -20 124 -44 157 -54 53 -16 60 -21 63 -45
2 -20 -5 -35 -25 -54 -61 -57 -89 -65 -403 -109 -63 -9 -164 -25 -225 -35
-169 -29 -436 -44 -635 -36 -237 9 -344 22 -480 56 -63 15 -164 36 -224 45
-61 9 -142 28 -180 42 -39 14 -111 37 -161 50 -49 13 -126 39 -170 58 -47 20
-119 40 -173 49 -52 9 -119 27 -150 41 -31 14 -110 39 -176 56 -67 17 -159 43
-206 59 -52 17 -145 37 -240 49 -85 12 -195 28 -245 36 -49 8 -110 17 -135 20
-58 7 -104 35 -127 77 -17 31 -18 84 -18 903 0 948 0 947 55 1000 l29 27 403
-1 c222 -1 430 -6 463 -11 33 -4 99 -11 146 -15 74 -6 87 -4 100 11 16 20 20
128 4 142 -6 6 -217 7 -560 2 -613 -8 -604 -9 -631 56 -19 46 -23 891 -5 1044
16 137 25 158 75 181 39 17 80 19 677 19 389 0 657 -4 690 -10 34 -7 73 -24
107 -48 116 -82 150 -95 192 -72 35 19 52 130 27 180 -7 13 -28 35 -47 48
l-34 23 -936 0 c-1272 1 -1216 2 -1251 -17 -16 -8 -35 -27 -40 -42 -21 -53
-25 -461 -20 -2177 2 -709 0 -1323 -4 -1362 l-8 -73 36 -15 c23 -10 70 -15
129 -15 270 -1 498 -32 663 -90 33 -12 96 -28 140 -36 44 -9 121 -32 170 -53
50 -21 115 -44 145 -51 30 -7 82 -26 115 -43 33 -16 110 -42 170 -57 61 -15
135 -40 164 -55 30 -15 98 -38 152 -51 53 -13 126 -35 162 -49 36 -13 117 -31
180 -40 63 -9 146 -25 183 -36 141 -42 176 -50 291 -64 179 -23 454 -30 658
-16 252 17 322 27 465 66 69 19 168 39 220 45 113 14 200 34 252 61 22 11 78
34 126 50 48 17 101 40 119 50 34 21 276 79 332 79 55 0 285 -58 358 -91 37
-17 108 -40 158 -51 49 -12 119 -33 155 -49 38 -16 110 -34 175 -44 61 -9 171
-32 245 -50 381 -96 1073 -96 1375 -1 44 14 123 32 175 41 162 26 204 36 246
61 23 13 75 34 116 48 41 13 104 39 138 56 69 35 267 80 351 80 64 0 289 -55
369 -90 36 -16 94 -35 130 -44 36 -8 107 -31 158 -51 63 -24 130 -41 205 -51
62 -9 168 -31 237 -50 231 -62 581 -85 920 -60 252 19 305 26 435 61 50 13
158 36 240 51 107 19 176 37 240 64 50 21 101 41 115 45 14 4 51 20 82 36 31
16 92 38 135 50 91 25 109 33 143 65 14 13 53 35 85 48 49 20 61 29 63 50 3
24 1 26 -39 26 -24 0 -65 -11 -96 -26 -30 -14 -93 -32 -141 -40 -48 -9 -100
-24 -117 -35 -66 -42 -116 -58 -260 -83 -82 -15 -200 -37 -260 -50 -161 -34
-424 -50 -705 -43 -244 7 -372 21 -550 62 -58 13 -141 29 -185 35 -73 9 -188
42 -410 115 -145 47 -259 83 -305 95 -30 8 -57 25 -82 52 l-37 40 -118 8 c-81
5 -134 14 -170 28 -91 37 -201 59 -478 97 -148 20 -288 42 -309 48 -56 17 -76
50 -87 142 -7 62 -9 1785 -5 3220 l1 210 -40 20 c-36 18 -63 20 -255 23 -192
2 -218 1 -244 -15z M22035 7560 c-38 -4 -389 -8 -779 -8 -661 -2 -710 -3 -728
-19 -47 -42 -61 -115 -46 -243 20 -180 49 -201 147 -104 92 92 164 133 311
176 97 28 427 41 770 29 296 -10 340 -18 373 -63 19 -25 19 -31 7 -85 -7 -32
-28 -89 -47 -126 -19 -38 -42 -94 -52 -126 -10 -32 -36 -82 -58 -112 -22 -30
-46 -72 -53 -94 -7 -22 -26 -67 -43 -100 -16 -33 -38 -85 -49 -115 -10 -30
-36 -84 -58 -120 -21 -36 -46 -83 -54 -106 -7 -22 -25 -63 -39 -90 -13 -27
-32 -72 -41 -101 -10 -29 -35 -78 -57 -110 -21 -32 -46 -80 -55 -108 -9 -27
-29 -72 -44 -100 -15 -27 -35 -73 -44 -101 -9 -28 -30 -71 -45 -96 -37 -58
-145 -281 -161 -331 -7 -22 -48 -109 -93 -195 -44 -87 -91 -184 -104 -217 -13
-33 -39 -86 -59 -117 -19 -32 -44 -83 -55 -115 -10 -31 -32 -80 -48 -107 -15
-28 -38 -78 -50 -111 -12 -33 -36 -81 -52 -106 -16 -25 -29 -50 -29 -55 0 -5
-22 -54 -49 -109 -55 -112 -100 -239 -108 -302 -5 -39 -3 -43 29 -59 31 -17
99 -18 1097 -15 1133 2 1114 1 1140 49 15 29 14 314 -1 347 -13 28 -45 41 -78
30 -12 -4 -45 -28 -74 -54 -65 -59 -224 -145 -296 -160 -106 -23 -406 -32
-745 -23 -338 9 -362 12 -392 51 -24 31 -13 90 41 229 30 75 70 164 90 196 20
33 36 64 36 69 0 11 43 104 125 272 30 61 66 137 81 170 14 33 45 103 69 156
23 52 56 114 73 138 17 23 39 66 48 94 18 57 90 215 129 287 37 68 68 133 126
262 28 65 71 150 95 190 24 40 53 102 65 138 12 36 34 90 49 120 15 30 33 72
39 92 7 20 26 56 43 79 27 38 72 131 143 299 13 30 60 129 105 219 45 90 90
187 101 215 11 28 33 71 48 96 34 54 44 92 36 132 -11 50 -45 57 -302 63 -125
3 -257 7 -293 9 -36 2 -96 0 -135 -4z"/>
</g>
</svg>
